<?xml version="1.0" standalone="no"?>
<!DOCTYPE svg PUBLIC "-//W3C//DTD SVG 20010904//EN"
 "http://www.w3.org/TR/2001/REC-SVG-20010904/DTD/svg10.dtd">
<svg version="1.0" xmlns="http://www.w3.org/2000/svg"
 width="1024.000000pt" height="1024.000000pt" viewBox="0 0 1024.000000 1024.000000"
 preserveAspectRatio="xMidYMid meet">

<g transform="translate(0.000000,1024.000000) scale(0.100000,-0.100000)"
fill="#000000" stroke="none">
<path d="M7836 8042 c-26 -12 -222 -201 -612 -592 -570 -572 -573 -575 -598
-560 -13 8 -147 125 -296 260 -149 135 -286 253 -303 262 -35 19 -121 23 -161
8 -38 -14 -107 -81 -123 -117 -21 -51 -17 -132 10 -176 13 -21 120 -126 238
-235 119 -108 285 -262 370 -341 85 -79 172 -152 194 -162 49 -23 123 -24 173
-4 26 11 241 220 709 688 l671 672 12 56 c34 174 -127 311 -284 241z"/>
<path d="M3300 7260 c-252 -33 -504 -132 -710 -278 -121 -86 -296 -260 -383
-382 -207 -292 -304 -654 -276 -1041 44 -618 468 -1172 1042 -1364 284 -95
607 -111 894 -44 513 118 970 537 1138 1042 174 525 69 1078 -285 1499 -241
287 -588 491 -945 554 -105 18 -381 27 -475 14z m360 -415 c240 -36 448 -140
635 -317 193 -183 311 -400 361 -663 20 -107 15 -306 -11 -425 -83 -380 -352
-701 -706 -845 -249 -101 -495 -117 -749 -50 -416 111 -743 462 -829 892 -41
204 -36 367 15 562 84 320 319 600 627 746 214 102 431 135 657 100z"/>
<path d="M3465 6605 c-73 -26 -109 -100 -86 -174 9 -31 8 -38 -6 -48 -9 -7
-24 -13 -32 -13 -9 0 -44 -13 -79 -30 -79 -37 -159 -116 -197 -195 -27 -54
-29 -70 -30 -165 0 -99 2 -109 32 -171 64 -130 165 -196 389 -254 151 -40 177
-50 216 -89 41 -42 53 -80 39 -126 -26 -87 -103 -139 -204 -140 -81 0 -122 20
-198 99 -54 56 -73 70 -107 76 -56 9 -104 -8 -142 -51 -90 -103 36 -280 249
-350 l65 -21 0 -49 c2 -120 111 -188 216 -134 50 26 74 70 73 135 l-1 51 51
18 c238 85 353 354 245 573 -32 65 -131 163 -198 195 -30 14 -120 45 -200 67
-163 47 -195 63 -228 112 -44 64 -14 134 79 182 46 24 62 28 108 23 73 -7 151
-47 195 -100 60 -74 139 -96 203 -56 67 40 88 112 54 182 -42 87 -173 186
-278 209 -43 10 -53 16 -47 28 18 44 25 85 19 112 -10 43 -61 97 -103 109 -46
12 -48 12 -97 -5z"/>
<path d="M7211 6370 c-49 -12 -83 -40 -108 -90 l-23 -44 0 -1862 c0 -1295 3
-1871 11 -1891 15 -40 48 -73 94 -94 37 -17 72 -19 430 -19 357 0 393 2 430
19 56 25 91 71 104 133 8 38 11 590 9 1883 l-3 1830 -23 42 c-12 24 -41 55
-64 70 l-42 28 -390 2 c-215 1 -406 -2 -425 -7z"/>
<path d="M5815 5576 c-37 -17 -80 -62 -94 -99 -8 -20 -11 -484 -11 -1498 0
-1607 -4 -1509 59 -1562 54 -45 84 -48 499 -45 440 3 434 2 479 87 l23 44 0
1469 c0 1299 -2 1473 -15 1505 -20 48 -41 71 -87 94 -35 18 -64 19 -430 19
-306 -1 -400 -4 -423 -14z m-88 -343 c-2 -21 -4 -6 -4 32 0 39 2 55 4 38 2
-18 2 -50 0 -70z m0 -235 c-2 -24 -4 -5 -4 42 0 47 2 66 4 43 2 -24 2 -62 0
-85z m0 -115 c-2 -16 -4 -5 -4 22 0 28 2 40 4 28 2 -13 2 -35 0 -50z m0 -265
c-1 -40 -3 -8 -3 72 0 80 2 112 3 73 2 -40 2 -106 0 -145z m0 -165 c-2 -16 -4
-3 -4 27 0 30 2 43 4 28 2 -16 2 -40 0 -55z m0 -125 c-2 -18 -4 -4 -4 32 0 36
2 50 4 33 2 -18 2 -48 0 -65z m0 -80 c-3 -7 -5 -2 -5 12 0 14 2 19 5 13 2 -7
2 -19 0 -25z m0 -310 c-3 -7 -5 -2 -5 12 0 14 2 19 5 13 2 -7 2 -19 0 -25z m0
-320 c-2 -13 -4 -3 -4 22 0 25 2 35 4 23 2 -13 2 -33 0 -45z m0 -210 c-3 -7
-5 -2 -5 12 0 14 2 19 5 13 2 -7 2 -19 0 -25z m0 -350 c-2 -13 -4 -3 -4 22 0
25 2 35 4 23 2 -13 2 -33 0 -45z m0 -290 c-3 -7 -5 -2 -5 12 0 14 2 19 5 13 2
-7 2 -19 0 -25z"/>
<path d="M4773 4265 c-17 -7 -78 -47 -135 -87 -56 -41 -130 -93 -163 -115 -62
-42 -765 -533 -1244 -870 l-274 -192 -31 26 c-17 14 -101 91 -186 172 -390
367 -534 498 -572 519 -142 78 -312 -60 -278 -225 15 -69 33 -88 419 -451 434
-408 470 -441 516 -465 48 -25 132 -27 186 -5 20 9 158 102 307 206 419 295
962 679 1015 718 l47 36 0 -504 c0 -468 2 -506 19 -543 22 -48 54 -79 103
-100 31 -13 95 -15 400 -15 409 0 418 2 474 76 l29 37 3 816 c2 550 0 828 -7
852 -15 51 -48 88 -95 110 -36 16 -68 19 -271 18 -173 0 -238 -3 -262 -14z"/>
</g>
</svg>
